<svg width="200" height="52" viewBox="0 0 200 52" fill="none" xmlns="http://www.w3.org/2000/svg">
<g clip-path="url(#clip0_49_29)">
<path d="M66.5575 13.2696H61.9355V34.1254H74.7308V30.0389H66.5575V13.2696Z" fill="#006BFF"/>
<path d="M75.1722 27.0514C75.1722 31.5044 78.1597 34.4636 82.669 34.4636C87.1502 34.4636 90.1377 31.5044 90.1377 27.0514C90.1377 22.5983 87.1502 19.6108 82.669 19.6108C78.1597 19.6108 75.1722 22.5983 75.1722 27.0514ZM79.5406 27.0231C79.5406 24.9094 80.7808 23.5003 82.669 23.5003C84.5291 23.5003 85.7693 24.9094 85.7693 27.0231C85.7693 29.1652 84.5291 30.5743 82.669 30.5743C80.7808 30.5743 79.5406 29.1652 79.5406 27.0231Z" fill="#006BFF"/>
<path d="M90.8359 26.8259C90.8359 31.0815 93.5979 33.9562 97.5153 33.9562C99.4037 33.9562 101.038 33.2799 101.856 32.1808V34.1254C101.856 36.0701 100.644 37.3664 98.5018 37.3664C96.5853 37.3664 95.2606 36.4646 95.1761 34.8582H90.7795C91.1741 38.7193 94.1615 41.3121 98.2481 41.3121C103.067 41.3121 106.111 38.1839 106.111 33.2235V20.0337H102.194L101.968 21.471C101.179 20.3155 99.5164 19.5546 97.6 19.5546C93.6542 19.5546 90.8359 22.5138 90.8359 26.8259ZM95.2325 26.7131C95.2325 24.6839 96.5853 23.3311 98.3045 23.3311C100.306 23.3311 101.771 24.6557 101.771 26.7131C101.771 28.7706 100.334 30.1797 98.3326 30.1797C96.6135 30.1797 95.2325 28.7706 95.2325 26.7131Z" fill="#006BFF"/>
<path d="M107.376 27.0514C107.376 31.5044 110.364 34.4636 114.873 34.4636C119.354 34.4636 122.342 31.5044 122.342 27.0514C122.342 22.5983 119.354 19.6108 114.873 19.6108C110.364 19.6108 107.376 22.5983 107.376 27.0514ZM111.745 27.0231C111.745 24.9094 112.985 23.5003 114.873 23.5003C116.733 23.5003 117.973 24.9094 117.973 27.0231C117.973 29.1652 116.733 30.5743 114.873 30.5743C112.985 30.5743 111.745 29.1652 111.745 27.0231Z" fill="#006BFF"/>
<path d="M126.084 17.8354C127.437 17.8354 128.536 16.7361 128.536 15.3552C128.536 13.9742 127.437 12.9032 126.084 12.9032C124.703 12.9032 123.604 13.9742 123.604 15.3552C123.604 16.7361 124.703 17.8354 126.084 17.8354ZM123.885 34.1254H128.254V20.0337H123.885V34.1254Z" fill="#006BFF"/>
<path d="M130.797 40.8894H135.081V32.7163C135.898 33.7872 137.759 34.52 139.703 34.52C143.902 34.52 146.439 31.3071 146.326 26.8541C146.213 22.3165 143.592 19.5827 139.675 19.5827C137.674 19.5827 135.786 20.4564 134.996 21.7529L134.77 20.0337H130.797V40.8894ZM135.165 27.0795C135.165 24.9658 136.574 23.5566 138.604 23.5566C140.661 23.5566 141.957 24.9939 141.957 27.0795C141.957 29.1652 140.661 30.6024 138.604 30.6024C136.574 30.6024 135.165 29.1933 135.165 27.0795Z" fill="#006BFF"/>
<path d="M146.788 29.6724C146.901 32.519 149.156 34.4917 152.707 34.4917C156.117 34.4917 158.485 32.688 158.485 29.7852C158.485 27.6996 157.245 26.3186 154.933 25.7548L152.426 25.1348C151.524 24.9094 150.96 24.6839 150.96 23.9511C150.96 23.2183 151.551 22.7392 152.426 22.7392C153.412 22.7392 154.059 23.3875 154.032 24.3457H157.95C157.836 21.4146 155.61 19.5827 152.51 19.5827C149.382 19.5827 147.043 21.4428 147.043 24.2612C147.043 26.1494 148.085 27.6996 150.875 28.4324L153.355 29.0805C154.088 29.2778 154.397 29.616 154.397 30.0951C154.397 30.7997 153.75 31.2507 152.65 31.2507C151.382 31.2507 150.706 30.6588 150.706 29.6724H146.788Z" fill="#006BFF"/>
<path d="M165.128 34.4918C166.848 34.4918 168.566 33.7026 169.44 32.5471L169.723 34.1254H173.809V20.0337H169.468V27.3614C169.468 29.4751 168.849 30.6306 166.848 30.6306C165.297 30.6306 164.283 29.9261 164.283 27.305V20.0337H159.942V28.8832C159.942 32.2372 161.803 34.4918 165.128 34.4918Z" fill="#006BFF"/>
<path d="M180.692 34.1254V26.4313C180.692 24.0639 181.96 23.3875 183.2 23.3875C184.581 23.3875 185.483 24.233 185.483 25.9804V34.1254H189.766V26.4313C189.766 24.0357 191.006 23.3593 192.246 23.3593C193.627 23.3593 194.557 24.2048 194.557 25.9804V34.1254H198.786V24.9094C198.786 21.6965 197.094 19.5546 193.458 19.5546C191.43 19.5546 189.766 20.5409 189.034 22.0628C188.188 20.5409 186.723 19.5546 184.383 19.5546C182.834 19.5546 181.396 20.2591 180.551 21.3864L180.382 20.0337H176.323V34.1254H180.692Z" fill="#006BFF"/>
<path d="M0 25.8064C0 13.6412 0 7.55853 3.77926 3.77926C7.55853 0 13.6412 0 25.8064 0C37.9717 0 44.0543 0 47.8337 3.77926C51.6129 7.55853 51.6129 13.6412 51.6129 25.8064C51.6129 37.9717 51.6129 44.0543 47.8337 47.8337C44.0543 51.6129 37.9717 51.6129 25.8064 51.6129C13.6412 51.6129 7.55853 51.6129 3.77926 47.8337C0 44.0543 0 37.9717 0 25.8064Z" fill="#006BFF"/>
<path d="M30.9677 33.5484C31.6804 33.5484 32.2711 34.1318 32.1296 34.8302C31.8794 36.0638 31.2716 37.2071 30.3684 38.1103C29.1586 39.3203 27.5176 40 25.8065 40C24.0954 40 22.4545 39.3203 21.2445 38.1103C20.3413 37.2071 19.7335 36.0638 19.4835 34.8302C19.3418 34.1318 19.9325 33.5484 20.6452 33.5484H30.9677Z" fill="white"/>
<path d="M33.6804 22.9374C32.992 23.1218 32.5705 23.8419 32.9195 24.4632C33.2869 25.1172 33.795 25.6879 34.4132 26.1308C35.3838 26.8263 36.5654 27.1639 37.757 27.0857C38.9485 27.0076 40.0761 26.5188 40.9476 25.7026C41.8192 24.8863 42.3807 23.793 42.5365 22.6092C42.6924 21.4253 42.433 20.224 41.8025 19.2099C41.1719 18.196 40.2092 17.432 39.0785 17.0481C37.9478 16.6643 36.719 16.6844 35.6014 17.105C34.8897 17.3729 34.2512 17.7926 33.7271 18.3292C33.2292 18.839 33.45 19.6437 34.0671 20L34.7217 20.3779C35.7172 20.9528 35.5209 22.4443 34.4105 22.7418L33.6804 22.9374Z" fill="white"/>
<path d="M17.9327 22.9374C18.621 23.1218 19.0426 23.8419 18.6936 24.4632C18.3262 25.1172 17.8181 25.6879 17.2 26.1308C16.2294 26.8263 15.0476 27.1639 13.8561 27.0857C12.6646 27.0076 11.537 26.5188 10.6654 25.7026C9.79391 24.8863 9.23237 23.793 9.07651 22.6092C8.92066 21.4253 9.1801 20.224 9.81067 19.2099C10.4412 18.196 11.4039 17.432 12.5346 17.0481C13.6653 16.6643 14.8942 16.6844 16.0118 17.105C16.7234 17.3729 17.3619 17.7926 17.8861 18.3292C18.384 18.839 18.1631 19.6437 17.5459 20L16.8914 20.3779C15.8959 20.9528 16.0923 22.4443 17.2026 22.7418L17.9327 22.9374Z" fill="white"/>
</g>
<defs>
<clipPath id="clip0_49_29">
<rect width="200" height="51.6129" fill="white"/>
</clipPath>
</defs>
</svg>
